<svg id="pixlpar_logo" data-name="pixlpar_logo" xmlns="http://www.w3.org/2000/svg" viewBox="0 0 128 66.9"><path d="M43.9,13.4a7.8,7.8,0,0,1,4.7,9.9,7.7,7.7,0,0,1-4.4,4.6A14.4,14.4,0,0,1,35.1,16,7.7,7.7,0,0,1,43.9,13.4Z" style="fill:#f26d21;fill-rule:evenodd"/><path d="M41.1,26.2a3.5,3.5,0,0,1-.3,1.4,6.2,6.2,0,0,1-7.9,3.7,6.2,6.2,0,0,1-3.7-7.9,6.2,6.2,0,0,1,6.7-4A14.5,14.5,0,0,0,41.1,26.2Z" style="fill:#66bb46;fill-rule:evenodd"/><path d="M41.1,26.2a14.5,14.5,0,0,1-5.2-6.8l1.2.3A6.2,6.2,0,0,1,41.1,26.2Z" style="fill:#fff584;fill-rule:evenodd"/><path d="M54.3.9A14.4,14.4,0,1,1,44.5,28h-.3a7.7,7.7,0,0,0,4.4-4.6,7.8,7.8,0,0,0-4.7-9.9A7.7,7.7,0,0,0,35.1,16a14.8,14.8,0,0,1,.8-6.5A14.3,14.3,0,0,1,54.3.9Z" style="fill:#ffca64;fill-rule:evenodd"/><path d="M41.1,26.2a5.7,5.7,0,0,1-.7,2.2A7.9,7.9,0,0,1,34.2,24a8.8,8.8,0,0,1-.6-4.5h0a5.9,5.9,0,0,1,2.3-.1A14.5,14.5,0,0,0,41.1,26.2Z" style="fill:#bed634;fill-rule:evenodd"/><path d="M44.2,27.9a8.2,8.2,0,0,1-3.8.5,3,3,0,0,0,.4-.8,3.5,3.5,0,0,0,.3-1.4,18.7,18.7,0,0,0,3.1,1.7Zm-8.3-8.5a5.9,5.9,0,0,0-2.3.1,5.7,5.7,0,0,1,.4-1.4A5.3,5.3,0,0,1,35.1,16,13,13,0,0,0,35.9,19.4Z" style="fill:#fddf42;fill-rule:evenodd"/><rect x="23" y="39.7" width="3.8" height="19.82" rx="1.5" ry="1.5" style="fill:#66bb46"/><path d="M9.9,39.7A9.9,9.9,0,0,0,0,49.6v.9H0v15a1.5,1.5,0,0,0,1.5,1.4h.8a1.5,1.5,0,0,0,1.5-1.4V57.4a9.9,9.9,0,0,0,16-7.8,9.9,9.9,0,0,0-9.9-9.9Zm0,16.1h0a6.2,6.2,0,0,1-6.2-6.2,6.1,6.1,0,0,1,6.2-6.1,6.1,6.1,0,0,1,6.2,6.1A6.2,6.2,0,0,1,9.9,55.8Z" style="fill:#66bb46"/><path d="M66.5,39.7a9.9,9.9,0,0,0-9.9,9.9v.9h0v15a1.5,1.5,0,0,0,1.5,1.4h.7a1.4,1.4,0,0,0,1.5-1.4V57.4a10.3,10.3,0,0,0,6.2,2.1,9.9,9.9,0,1,0,0-19.8Zm0,16.1h0a6.2,6.2,0,0,1-6.2-6.2,6.2,6.2,0,0,1,12.4,0A6.2,6.2,0,0,1,66.5,55.8Z" style="fill:#66bb46"/><path d="M78.6,49.6a9.9,9.9,0,0,0,9.9,9.9,10.1,10.1,0,0,0,6.2-2.1v.7a1.5,1.5,0,0,0,1.5,1.5H97a1.5,1.5,0,0,0,1.5-1.5V50.5h0v-.9a10,10,0,0,0-19.9,0Zm3.7,0h0a6.3,6.3,0,0,1,12.5,0,6.3,6.3,0,0,1-12.5,0Z" style="fill:#66bb46"/><path d="M49.5,33.8A1.5,1.5,0,0,1,51,32.3h.7a1.5,1.5,0,0,1,1.5,1.5V58a1.4,1.4,0,0,1-1.5,1.5H51A1.5,1.5,0,0,1,49.5,58Z" style="fill:#66bb46"/><path d="M108.9,40a9.8,9.8,0,0,0-7.7,9.6v7.5h0V58a1.5,1.5,0,0,0,1.5,1.5h.8A1.5,1.5,0,0,0,105,58V52h0V49.6a6.3,6.3,0,0,1,4.5-6,1.7,1.7,0,0,0,1.6-1.6v-.8S111.2,39.4,108.9,40Z" style="fill:#66bb46"/><path d="M26,32.6a2.6,2.6,0,1,1-2.4,4.6,2.5,2.5,0,0,1-1.1-3.5A2.6,2.6,0,0,1,26,32.6Z" style="fill:#66bb46;fill-rule:evenodd"/><path d="M39.5,44.7l-.5.7a1,1,0,0,1-.9.4h0a1.2,1.2,0,0,1-.9-.4l-.5-.7-3.3-4.4a1.5,1.5,0,0,0-2.1-.3l-.6.5a1.5,1.5,0,0,0-.3,2.1l4.4,5.7h.1a2.1,2.1,0,0,1,0,2.4V51h0l-4.7,5.7a1.6,1.6,0,0,0,.2,2.1l.6.4a1.5,1.5,0,0,0,2.1-.3L36.4,55h0l.6-.9.2-.3a2,2,0,0,1,.9-.5h0a1.3,1.3,0,0,1,.9.5l.2.3.7.9h0l3.3,3.9a1.5,1.5,0,0,0,2.1.3l.6-.4a1.5,1.5,0,0,0,.3-2.1L41.5,51h0v-.2a2.1,2.1,0,0,1,0-2.4h.1l4.4-5.7a1.6,1.6,0,0,0-.3-2.1L45,40a1.5,1.5,0,0,0-2.1.3Z" style="fill:#66bb46"/><path d="M115.8,32.3h-.7a1.5,1.5,0,0,0-1.5,1.5V58a1.5,1.5,0,0,0,1.2,1.5h1.6a1.6,1.6,0,0,0,.9-1.4V33.8A1.5,1.5,0,0,0,115.8,32.3Z" style="fill:#66bb46"/><path d="M122.9,50.8l-.3-.5a2.1,2.1,0,0,1,.3-1.9h.1l4.3-5.7a1.5,1.5,0,0,0-.2-2.1l-.6-.5a1.5,1.5,0,0,0-2.1.3l-6.2,8.1a2.1,2.1,0,0,0,0,2.4l6.5,8.1a1.5,1.5,0,0,0,2.1.3l.6-.4a1.5,1.5,0,0,0,.3-2.1Z" style="fill:#66bb46"/></svg>